/* XPM */
static const char * tb_about_xpm[] = {
"32 32 10 1",
" 	c None",
".	c #030205",
"+	c #030104",
"@	c #030203",
"#	c #040204",
"$	c #040104",
"%	c #030105",
"&	c #020104",
"*	c #030103",
"=	c #020004",
"            .++++++.            ",
"         .++++++++++++.         ",
"       @++++++++++++++++#       ",
"      $+++++++++++++++++++      ",
"     +++++++++++++++++++++%     ",
"    +++++++++++++++++++++++%    ",
"   &++++++++++++   ++++++++++   ",
"  #++++++++++++     +++++++++#  ",
"  +++++++++++++     ++++++++++  ",
" @+++++++++++++     ++++++++++@ ",
" +++++++++++++++  #++++++++++++ ",
" ++++++++++++++++++++++++++++++ ",
"@++++++++++++++&+++++++++++++++@",
"+++++++++++$     .++++++++++++++",
"+++++++++++       ++++++++++++++",
"++++++++++++++    ++++++++++++++",
"++++++++++++++    *+++++++++++++",
"+++++++++++++&    ++++++++++++++",
"+++++++++++++#    ++++++++++++++",
"@++++++++++++    .+++++++++++++@",
" ++++++++++++    ++++++++++++++ ",
" ++++++++++++    ++++++++++++++ ",
" @++++++++++#    +++++++++++++@ ",
"  ++++++++++#    ++%++++++++++  ",
"  #+++++++++*      .+++++++++#  ",
"   ++++++++++$   #%++++++++++   ",
"    *++++++++++++++++++++++*    ",
"     %++++++++++++++++++++%     ",
"      ++++++++++++++++++++      ",
"        ++++++++++++++++=       ",
"         @++++++++++++@         ",
"            .++++++.            "};
