/* XPM */
static const char * tb_grid_xpm[] = {
"32 32 4 1",
" 	c None",
".	c #010002",
"+	c #000004",
"@	c #000000",
"  ......     ......     ......  ",
" ........   ........   ........ ",
".........+ .........+ .........+",
".........+ .........+ .........+",
".........+ .........+ .........+",
".........+ .........+ .........+",
".........+ .........+ .........+",
".........@ .........@ .........@",
" ........   ........   ........ ",
"  +++++@     +++++@     +++++@  ",
"                                ",
"  ......     ......     ......  ",
" ........   ........   ........ ",
".........+ .........+ .........+",
".........+ .........+ .........+",
".........+ .........+ .........+",
".........+ .........+ .........+",
".........+ .........+ .........+",
".........@ .........@ .........@",
" ........   ........   ........ ",
"  +++++@     +++++@     +++++@  ",
"                                ",
"  ......     ......     ......  ",
" ........   ........   ........ ",
".........+ .........+ .........+",
".........+ .........+ .........+",
".........+ .........+ .........+",
".........+ .........+ .........+",
".........+ .........+ .........+",
".........@ .........@ .........@",
" ........   ........   ........ ",
"  +++++@     +++++@     +++++@  "};
