/* XPM */
static const char * tb_help_xpm[] = {
"32 32 52 1",
" 	c None",
".	c #000000",
"+	c #141414",
"@	c #838383",
"#	c #CDCDCD",
"$	c #F0F0F0",
"%	c #FBFBFB",
"&	c #EEEEEE",
"*	c #C8C8C8",
"=	c #7B7B7B",
"-	c #0D0D0D",
";	c #303030",
">	c #EAEAEA",
",	c #FFFFFF",
"'	c #7C7C7C",
")	c #090909",
"!	c #333333",
"~	c #D7D7D7",
"{	c #E0E0E0",
"]	c #212121",
"^	c #898989",
"/	c #444444",
"(	c #B8B8B8",
"_	c #F1F1F1",
":	c #ECECEC",
"<	c #0E0E0E",
"[	c #F5F5F5",
"}	c #636363",
"|	c #E6E6E6",
"1	c #858585",
"2	c #070707",
"3	c #DCDCDC",
"4	c #313131",
"5	c #767676",
"6	c #969696",
"7	c #A8A8A8",
"8	c #020202",
"9	c #232323",
"0	c #F9F9F9",
"a	c #F8F8F8",
"b	c #747474",
"c	c #A1A1A1",
"d	c #E8E8E8",
"e	c #323232",
"f	c #535353",
"g	c #FDFDFD",
"h	c #111111",
"i	c #484848",
"j	c #E2E2E2",
"k	c #464646",
"l	c #E3E3E3",
"m	c #4A4A4A",
"             ......             ",
"          ............          ",
"        ................        ",
"      ....................      ",
"     ......................     ",
"    ........................    ",
"   ..........................   ",
"   .........+@#$%&*=-........   ",
"  .........;>,')!~,,{]........  ",
"  .........#,,^../,,,(........  ",
" .........._,,:..<,,,[......... ",
" ..........}|_1..2,,,3......... ",
" ................4,,,5......... ",
".................6,,78..........",
"................90ab............",
"................cde.............",
"................:f..............",
"................gh..............",
"................................",
" .............................. ",
" .............ijjk............. ",
" .............l,,j............. ",
"  ............l,,j............  ",
"  ............mlli............  ",
"   ..........................   ",
"   ..........................   ",
"    ........................    ",
"     ......................     ",
"      ....................      ",
"        ................        ",
"          ............          ",
"             ......             "};
