/* XPM */
static const char * tb_links_xpm[] = {
"32 32 2 1",
" 	c None",
".	c #000000",
"                                ",
"                                ",
"                                ",
"               ..               ",
"             ......             ",
"             ......             ",
"            ........            ",
"            ........            ",
"             ......             ",
"             ......             ",
"             ......             ",
"            ..    ..            ",
"         ....      ....         ",
"       ......      ......       ",
"       ......      ......       ",
"      ........    ........      ",
"      ........    ........      ",
"       ......      ......       ",
"       ......      ......       ",
"      .. ....        .. ..      ",
"     ..     ..           ..     ",
"   ...       ....         ...   ",
" ......      ......      ...... ",
" ......      ......      ...... ",
"........    ........    ........",
"........    ........    ........",
" ......      ......      ...... ",
" ......      ......      ...... ",
"   ..          ..          ..   ",
"                                ",
"                                ",
"                                "};
