/* XPM */
static const char * tb_new_xpm[] = {
"32 32 52 1",
" 	c None",
".	c #000000",
"+	c #000000",
"@	c #000000",
"#	c #000000",
"$	c #000000",
"%	c #000000",
"&	c #000000",
"*	c #000000",
"=	c #000000",
"-	c #000000",
";	c #000000",
">	c #000000",
",	c #000000",
"'	c #000000",
")	c #000000",
"!	c #000000",
"~	c #000000",
"{	c #000000",
"]	c #000004",
"^	c #000004",
"/	c #000003",
"(	c #000003",
"_	c #000002",
":	c #000002",
"<	c #000002",
"[	c #020002",
"}	c #020002",
"|	c #020002",
"1	c #020002",
"2	c #020002",
"3	c #010001",
"4	c #010001",
"5	c #010001",
"6	c #010003",
"7	c #010003",
"8	c #010003",
"9	c #010002",
"0	c #010002",
"a	c #010002",
"b	c #010002",
"c	c #010002",
"d	c #010002",
"e	c #010002",
"f	c #010002",
"g	c #010002",
"h	c #010002",
"i	c #010002",
"j	c #010002",
"k	c #010002",
"l	c #010002",
"m	c #010002",
"                                ",
"      !mmmmmmmmmmmmmmmm^        ",
"     (mmmmmmmmmmmmmmmmm^        ",
"    }mmmmd%%%%%%%%%%%mm^        ",
"   7mmmmmc           mm^        ",
"  ammmmmmc           mm^        ",
" immmmmmmc           mm^        ",
"mmmmmmmmmc           mm^        ",
"mmmmmmmmmc           mm^        ",
"mmg5555552           mm^        ",
"mm0                             ",
"mm0                             ",
"mm0                             ",
"mm0                 mmmmm       ",
"mm0                 mmmmm       ",
"mm0                 mmmmm       ",
"mm0                 mmmmm       ",
"mm0                 mmmmm       ",
"mm0                 mmmmm       ",
"mm0                 mmmmm       ",
"mm0          mmmmmmmmmmmmmmmmmmm",
"mm0          mmmmmmmmmmmmmmmmmmm",
"mm0          mmmmmmmmmmmmmmmmmmm",
"mm0          mmmmmmmmmmmmmmmmmmm",
"mm0          cccccccmmmmmccccccc",
"mm0                 mmmmm       ",
"mm0                 mmmmm       ",
"mm0                 mmmmm       ",
"mm0                 mmmmm       ",
"mmmmmmmmmmmmmmmm1   mmmmm       ",
"mmmmmmmmmmmmmmmm1   mmmmm       ",
"****************$   ]]]]]       "};
