/* XPM */
static const char * tb_sensor_rand_xpm[] = {
"32 32 9 1",
" 	c None",
".	c #000000",
"+	c #020004",
"@	c #040004",
"#	c #030103",
"$	c #030104",
"%	c #030005",
"&	c #020005",
"*	c #020104",
"                                ",
"                                ",
"                                ",
"                                ",
"                        ....... ",
"                        ....... ",
"                         ...... ",
"                          ..... ",
"                         ...... ",
"                        ... ... ",
"                    .+@...   .. ",
"                   #$$$$.       ",
"                  +$$$$$$       ",
"                  $$$$$$$       ",
"                  $$$$$$$       ",
"         .%.      &$$$$$$       ",
"        $$$$*      *$$$$        ",
"       $$$$$$&      .%.         ",
"       $$$$$$$                  ",
"       $$$$$$$                  ",
"       $$$$$$+                  ",
"       .$$$$#                   ",
" ..   ...@+.                    ",
" ... ...                        ",
" ......                         ",
" .....                          ",
" ......                         ",
" .......                        ",
" .......                        ",
"                                ",
"                                ",
"                                "};
